<svg xmlns="http://www.w3.org/2000/svg" width="101" height="31.553" viewBox="0 0 101 31.553">
  <path id="Path_276" data-name="Path 276" d="M89.78,30.553V28.546l-2.4-2.592h1.052l1.833,2,1.746-2h1.019l-2.386,2.592v2.007Zm-4.251,0-1.833-1.8H82.438v1.8h-.867v-4.6h3.7q.965,0,.965.889v1.03a.759.759,0,0,1-.5.824,5.775,5.775,0,0,1-1.074.054l2.028,1.8Zm-3.091-2.44h2.451a.588.588,0,0,0,.384-.092.5.5,0,0,0,.1-.375v-.553q0-.466-.487-.466H82.438Zm-6.973,2.44a1.326,1.326,0,0,1-.89-.223,1.177,1.177,0,0,1-.238-.862V25.954H75.2v3.9h3.362v-3.9h.878v3.514a1.174,1.174,0,0,1-.238.862,1.325,1.325,0,0,1-.889.223Zm-3.622,0-1.854-1.866-1.67,1.866H67.2l2.31-2.354-2.343-2.245h1.172L70,27.625l1.518-1.67h1.073l-2.115,2.137,2.58,2.462Zm-10.042,0a1.326,1.326,0,0,1-.889-.223,1.174,1.174,0,0,1-.239-.862V25.954h.868v3.9H64.9v-3.9h.879v3.514a1.171,1.171,0,0,1-.239.862,1.321,1.321,0,0,1-.889.223Zm-6.929,0v-4.6h.867v3.9h3.578v.694Zm-6.746,0-1.832-1.8H45.036v1.8h-.867v-4.6h3.7q.966,0,.966.889v1.03a.759.759,0,0,1-.5.824,5.77,5.77,0,0,1-1.074.054l2.029,1.8Zm-3.091-2.44h2.451a.59.59,0,0,0,.385-.092.5.5,0,0,0,.1-.375v-.553q0-.466-.488-.466H45.036Zm-7.168,2.44v-4.6H42.5v.683H38.735V27.82H41V28.5H38.735V29.88h3.806v.673Zm-4.479,0-2.646-4.6h.933l2.06,3.7,1.973-3.7h.857l-2.516,4.6Zm-8.285,0a1.348,1.348,0,0,1-.889-.217,1.173,1.173,0,0,1-.239-.867V27.05a1.2,1.2,0,0,1,.239-.867,1.3,1.3,0,0,1,.889-.228h3.318a1.3,1.3,0,0,1,.89.228,1.2,1.2,0,0,1,.239.867v2.419a1.174,1.174,0,0,1-.239.862,1.324,1.324,0,0,1-.89.223Zm-.261-.694h3.84V26.638h-3.84Zm-6.43.694a1.328,1.328,0,0,1-.884-.217,1.194,1.194,0,0,1-.233-.867V27.05a1.217,1.217,0,0,1,.233-.867,1.278,1.278,0,0,1,.884-.228h2.7q.8,0,1.009.391a3.18,3.18,0,0,1,.12,1.139l-.868.141v-.987H18.164v3.221h3.209v-1.1l.868.163v.542A1.174,1.174,0,0,1,22,30.33a1.324,1.324,0,0,1-.89.223Zm-6.93,0a1.214,1.214,0,0,1-.916-.25,1.568,1.568,0,0,1-.211-.965l.792-.163v.683h3.47V28.568h-2.96q-.8,0-1-.379a3.185,3.185,0,0,1-.119-1.139,1.2,1.2,0,0,1,.239-.867,1.279,1.279,0,0,1,.878-.228h2.559a1.277,1.277,0,0,1,.895.234,1.258,1.258,0,0,1,.233.883l-.792.174v-.607H11.332v1.193h2.949a1.308,1.308,0,0,1,.879.222,1.18,1.18,0,0,1,.238.863v.553a1.177,1.177,0,0,1-.238.862,1.3,1.3,0,0,1-.879.223Zm-3.958,0V25.965h.867v4.588ZM0,30.553v-4.6H2.646a3.572,3.572,0,0,1,1.843.359,2.122,2.122,0,0,1,1,1.93q0,2.31-2.841,2.31Zm.867-.694H2.548a2.881,2.881,0,0,0,1.485-.293,1.467,1.467,0,0,0,.587-1.334,1.405,1.405,0,0,0-.6-1.3,2.886,2.886,0,0,0-1.475-.293H.867Zm88.981-7.834-9.369-5.847v5.847H77.511V6.9h2.968v5.864L89.848,6.9h2.787V8.538l-9.481,5.929,9.481,5.919v1.639Zm-29.694,0V6.9H75.278V9.893H63.122v3.071h9.722v2.994H63.122V19.03H75.278v2.994Zm-5.419,0V6.9h2.529V22.024Zm-11.958,0V9.893H36.712V6.9H51.838V9.893H45.746V22.024ZM31,22.024l-9.343-10.5v10.5H18.69V6.9h2.821l9.335,10.488V6.9h2.968V22.024Zm-18.844,0V15.933H2.968v6.091L0,22.011V9.6A2.389,2.389,0,0,1,2.706,6.9h9.722a2.387,2.387,0,0,1,2.7,2.7V22.024Zm-9.188-9.06h9.188V9.893H2.968ZM98.077,8.457V1.921h-7.7L89.8.992,91.386,0H100V7.453l-.991,1.586Z" transform="translate(0.5 0.5)" fill="#D6D2CE" stroke="rgba(0,0,0,0)" stroke-width="1"/>
</svg>
