<svg xmlns:xlink="http://www.w3.org/1999/xlink" width="300" id="a" xmlns="http://www.w3.org/2000/svg" viewBox="0 0 98.14 56.4" height="172" ><defs><style>.b{fill:#8b4a53}</style></defs><path class="b" d="M76.25 53.61c-3.09 0-6.05-.32-8.26-.95h-.03l-.75-.24-47.14-15.47c-.64-.23-1.15-.46-1.55-.71-.7-.45-1.06-.95-1.08-1.48-.03-1.29 1.99-2.53 5.56-3.39 5.68-1.36 13.59-1.35 18.01 0 .12.04.24.08.35.12l.17.06h.02l46.36 15.23c.09.03.19.06.28.08 2.01.62 3.06 1.45 3.05 2.4 0 .54-.36 1.06-1.06 1.56-.69.49-1.7.95-3.02 1.36-.27.09-.59.18-.92.27-2.93.77-6.55 1.16-9.99 1.16Zm-8.19-1.32h.02c4.61 1.34 12.54 1.25 18.07-.2.33-.08.63-.17.9-.26 1.28-.39 2.26-.83 2.92-1.3.58-.42.9-.86.9-1.27 0-.76-.98-1.48-2.78-2.03-.09-.02-.19-.05-.29-.08L41.46 31.93h-.03l-.19-.07-.33-.12c-4.36-1.34-12.19-1.34-17.82 0-3.28.79-5.3 1.95-5.27 3.02.01.4.32.8.9 1.18.37.23.86.45 1.47.67l1.45.48L68.05 52.3Zm23-3.04Z" fill="#8B4A53"></path><path class="b" d="M76.25 56.4c-3.08 0-6.02-.31-8.23-.95h-.06l-.44-.14c-.08-.02-.16-.05-.24-.08-.05-.02-.06-.03-.07-.03L20.08 39.74c-2.17-.76-2.63-1.63-2.63-2.23v-2.76c0-.1.08-.18.18-.18.1-.01.18.08.19.18.01.4.32.8.9 1.18.37.23.86.45 1.47.67l1.45.48 46.41 15.21h.02c4.61 1.34 12.54 1.25 18.07-.21.33-.08.63-.17.9-.26 1.28-.39 2.26-.83 2.92-1.3.58-.43.9-.86.9-1.27 0-.1.08-.18.19-.18.1 0 .18.08.18.18v2.77c0 1.22-1.78 2.35-5 3.2-2.94.77-6.55 1.16-9.99 1.16Zm-8.21-1.32h.04c4.61 1.34 12.54 1.25 18.07-.21 2.96-.78 4.72-1.84 4.72-2.85v-1.85c-.17.22-.4.43-.69.64-.69.49-1.7.95-3.02 1.36-.27.09-.59.18-.92.27-5.57 1.47-13.58 1.56-18.25.21h-.03l-.75-.24-47.14-15.47c-.64-.23-1.15-.46-1.55-.71-.3-.19-.53-.39-.71-.6v1.87c0 .68.84 1.34 2.38 1.88l.13.04L67.3 54.83s.06.02.1.03c.08.03.16.05.23.07l.41.13ZM68.76 32.63c-3.09 0-6.05-.32-8.26-.95h-.03l-.79-.26-47.09-15.46c-.65-.23-1.15-.46-1.55-.71-.7-.45-1.06-.95-1.08-1.48-.02-.64.45-1.26 1.4-1.85.05-.03.1-.04.15-.02l38.34 12.58.09.03c.09.03.16.05.24.08l.4.13h.05c3.67 1.06 9.62 1.24 14.82.45h.09l8.67 2.84s.05.02.09.03c.09.03.16.05.23.07l.4.13h.05c2.02.59 4.85.92 7.97.94.08 0 .14.05.17.12.03.07 0 .15-.05.2-.11.1-.24.21-.38.31-.69.49-1.7.95-3.02 1.36-.27.09-.59.18-.92.27-2.93.77-6.55 1.16-9.99 1.16Zm-8.19-1.32h.02c4.61 1.34 12.54 1.25 18.07-.2.33-.08.63-.17.9-.26 1.25-.39 2.22-.81 2.87-1.27-2.93-.05-5.57-.38-7.51-.93h-.06l-.43-.14c-.08-.02-.16-.05-.24-.08-.05-.02-.06-.03-.08-.03l-8.65-2.83c-5.21.79-11.18.61-14.89-.46h-.06l-.43-.14c-.08-.02-.17-.05-.25-.08-.05-.02-.06-.03-.07-.03L11.48 12.29c-.77.49-1.17 1-1.15 1.48.01.4.32.8.9 1.18.37.23.86.45 1.47.67l1.45.48 46.41 15.21Z" fill="#8B4A53"></path><path class="b" d="M68.76 35.41c-3.08 0-6.02-.31-8.23-.95h-.06l-.43-.14c-.08-.02-.17-.05-.25-.08-.05-.02-.06-.03-.07-.03L12.59 18.75c-2.17-.76-2.63-1.63-2.63-2.23v-2.76c0-.1.08-.18.18-.18.08 0 .18.08.19.18.01.4.32.8.9 1.18.37.23.86.45 1.47.67l1.45.48L60.56 31.3h.02c4.61 1.34 12.54 1.25 18.07-.2.33-.08.63-.17.9-.26 1.28-.39 2.26-.83 2.92-1.3.13-.09.24-.19.34-.28a.21.21 0 0 1 .13-.05h.61c.05 0 .1.02.14.05.04.03.06.08.06.13v1.66c0 1.22-1.78 2.36-5 3.2-2.94.77-6.55 1.16-9.99 1.16Zm-8.21-1.32h.04c4.61 1.34 12.54 1.25 18.07-.21 2.96-.78 4.72-1.84 4.72-2.85v-1.47h-.37c-.1.09-.21.17-.32.26-.69.49-1.7.95-3.02 1.36-.27.09-.59.18-.92.27-5.57 1.47-13.58 1.56-18.25.21h-.03l-.79-.26-47.09-15.44c-.65-.23-1.15-.46-1.55-.71-.3-.19-.53-.39-.71-.6v1.87c0 .68.84 1.34 2.38 1.88l.13.04 46.98 15.41s.06.02.1.03c.08.03.16.05.23.07l.4.13Z" fill="#8B4A53"></path><g><path class="b" d="M58.46 23.24c-3.07-.02-5.88-.35-7.91-.94h-.03l-.79-.26L2.63 6.59c-.65-.23-1.15-.46-1.55-.71C.38 5.43.02 4.93 0 4.4c-.03-1.29 1.99-2.52 5.56-3.38 5.68-1.35 13.59-1.35 18.01 0 .12.04.24.08.35.12l.17.06h.02l8.64 2.85c.08.03.13.11.13.19s-.07.15-.16.17c-.91.13-1.83.3-2.72.51-3.28.79-5.3 1.95-5.27 3.02v2.76c0 .68.84 1.34 2.38 1.88l.13.04 31.29 10.26c.09.03.14.12.12.2-.01.09-.09.15-.18.15Zm-7.85-1.3h.02c1.73.51 4.04.82 6.6.91l-30.25-9.93c-2.17-.76-2.63-1.63-2.63-2.23V7.93c-.03-1.29 1.99-2.52 5.56-3.38.65-.16 1.32-.29 1.99-.4l-7.89-2.59h-.03l-.19-.07-.33-.12C19.09.03 11.27.03 5.64 1.37 2.36 2.17.34 3.32.37 4.39c.01.4.32.8.9 1.18.37.23.86.45 1.47.67l1.45.48L50.6 21.93Z" fill="#8B4A53"></path><path class="b" d="M58.81 26.04c-3.12 0-6.07-.32-8.24-.94h-.06l-.43-.14c-.08-.02-.17-.05-.25-.08-.05-.02-.06-.03-.07-.03L2.63 9.38C.46 8.63 0 7.76 0 7.16V4.4c0-.1.08-.18.18-.18.09-.01.18.08.19.18.01.4.32.8.9 1.18.37.23.86.45 1.47.67l1.45.48L50.6 21.94h.02c2 .59 4.78.92 7.83.93h.06l7.02 2.31c.08.03.13.11.13.19s-.07.15-.16.17c-2.17.33-4.48.49-6.69.49Zm-8.22-1.32h.04c3.49 1.01 9.04 1.22 14.04.56l-6.24-2.05c-3.06-.02-5.86-.35-7.89-.94h-.03l-.79-.26L2.63 6.59c-.65-.23-1.15-.46-1.55-.71-.3-.19-.53-.39-.71-.6v1.88c0 .68.84 1.34 2.38 1.88l.13.04 46.98 15.41.09.03c.09.03.16.05.24.08l.4.13Z" fill="#8B4A53"></path></g><g><path class="b" d="M83.18 26.79c-.39 0-.77 0-1.16-.01-2.79-.07-5.25-.39-7.13-.93h-.03l-.79-.26-8.64-2.84-38.45-12.61c-.38-.14-.69-.27-.95-.39-.23-.1-.44-.21-.6-.32-.69-.45-1.06-.95-1.07-1.48-.03-1.29 1.99-2.53 5.56-3.39.9-.22 1.83-.39 2.75-.52 5.33-.81 11.61-.6 15.26.52.12.04.24.08.35.12l.17.06h.02l46.36 15.23c.09.03.19.06.28.08 2.01.62 3.06 1.45 3.05 2.4 0 .53-.36 1.06-1.06 1.56-.69.5-1.71.95-3.02 1.36-.27.09-.58.18-.92.27-2.83.75-6.41 1.16-9.96 1.16Zm-8.22-1.31h.02c1.85.54 4.29.86 7.05.93 3.9.1 7.91-.31 11.02-1.13.33-.08.64-.17.9-.26 1.28-.39 2.26-.83 2.92-1.3.59-.43.9-.86.9-1.27 0-.76-.98-1.48-2.78-2.03-.09-.02-.2-.05-.29-.08L48.35 5.1h-.03l-.19-.07-.33-.12c-3.6-1.1-9.81-1.31-15.09-.51-.92.13-1.83.3-2.72.51-3.28.79-5.3 1.95-5.27 3.02.01.4.32.8.9 1.18.15.1.34.2.56.3.25.12.55.25.92.38l1.45.48 46.41 15.22Zm23-3.04Z" fill="#8B4A53"></path><path class="b" d="M83.13 29.58h-.19c-3.12-.02-5.97-.35-8.02-.94h-.06l-.43-.14c-.08-.02-.16-.05-.24-.08-.05-.02-.06-.03-.08-.03L26.98 12.92c-2.17-.76-2.63-1.63-2.63-2.23V7.93c0-.1.08-.18.18-.18.1 0 .18.08.19.18.01.4.32.8.9 1.18.15.1.34.2.56.3.25.12.55.25.92.38l1.45.48 46.41 15.22h.02c1.85.54 4.29.86 7.05.93 3.89.1 7.91-.31 11.02-1.13.33-.08.64-.17.9-.26 1.28-.39 2.26-.83 2.92-1.3.59-.43.9-.86.9-1.27 0-.1.08-.18.18-.18.1 0 .18.08.18.18v2.77c0 1.22-1.78 2.35-5 3.2-2.73.72-6.13 1.13-9.57 1.15-.14 0-.29.01-.44.01Zm-8.19-1.32h.05c2.02.59 4.85.92 7.97.94h.61c3.42-.02 6.78-.43 9.49-1.14 2.96-.78 4.72-1.84 4.72-2.85v-1.85c-.17.22-.4.43-.69.64-.69.5-1.71.95-3.02 1.36-.27.09-.58.18-.92.27-3.14.83-7.19 1.24-11.12 1.14-2.79-.07-5.25-.39-7.13-.93h-.03l-.79-.26-8.64-2.84-38.46-12.6c-.38-.14-.69-.27-.95-.39-.23-.1-.44-.21-.6-.32-.3-.19-.53-.39-.7-.6v1.87c0 .68.84 1.34 2.38 1.88l.13.04 46.98 15.41s.05.02.09.03c.09.03.16.05.23.07l.4.13Z" fill="#8B4A53"></path></g></svg>