<svg xmlns:xlink="http://www.w3.org/1999/xlink" xmlns="http://www.w3.org/2000/svg" viewBox="0 0 311.4 312.2" width="311.4"  height="312.2" ><g fill="#FFFFFF"><path d="M311.4,58.5c-0.3,18.3-6.1,32.7-17.8,44.5c-26.1,26.3-52.4,52.5-78.6,78.7c-35.9,36-71.8,72-107.7,107.9 c-1.8,1.8-4.5,3.2-7,3.8c-28.3,6.3-56.7,12.4-85.1,18.5c-9.3,2-16.8-5.8-14.8-15.1c6.2-28.3,12.2-56.6,18.4-84.9 c0.6-2.6,2.1-5.5,3.9-7.4c49.9-50.1,99.8-100.1,149.8-150.1c13.3-13.3,26-27.4,40.2-39.7c35-30.5,89.1-11.1,97.7,34.6 C311,52.9,311.2,56.5,311.4,58.5z M183.5,77.6c-0.1,0.1-0.5,0.4-0.8,0.7c-46.5,46.6-93,93.1-139.4,139.8c-1.1,1.1-1.8,2.7-2.2,4.2 c-2,8.6-3.8,17.3-5.7,26c-2.5,11.9-5.1,23.8-7.6,35.9c0.8,0,1.3,0.1,1.7,0c19.7-4.2,39.5-8.4,59.2-12.8c2.4-0.5,4.8-2,6.6-3.7 c45.5-45.4,90.9-91,136.4-136.4c1-1,2.2-1.6,3.1-2.2C217.2,111.4,200.4,94.5,183.5,77.6z M251.7,110.1c8.6-8.4,17.5-16.8,26.1-25.6 c17-17.4,10.4-48.5-12.3-57.3c-14.5-5.7-28-3.3-39.3,7.8c-8.4,8.3-16.6,16.8-24.6,25C218.4,76.6,235.2,93.5,251.7,110.1z" fill="#FFFFFF"></path></g></svg>