<svg xmlns:xlink="http://www.w3.org/1999/xlink" xmlns="http://www.w3.org/2000/svg" viewBox="0 0 161.045 161" width="161.045"  height="161" >
  <path id="Path_17" data-name="Path 17" d="M91.587,173.2a5,5,0,0,1-1.954-1.86,5.671,5.671,0,0,1-.087-5.48,5.045,5.045,0,0,1,1.889-1.934,5.615,5.615,0,0,1,5.358-.093,5.086,5.086,0,0,1,1.969,1.867,5.594,5.594,0,0,1,.095,5.48,5.1,5.1,0,0,1-1.9,1.927,5.419,5.419,0,0,1-2.671.727h-.107A5.4,5.4,0,0,1,91.587,173.2Zm2.551-7.693a2.546,2.546,0,0,0-1.974.863,3.593,3.593,0,0,0,.076,4.385,2.558,2.558,0,0,0,2,.786,2.586,2.586,0,0,0,1.989-.848,3.616,3.616,0,0,0-.076-4.4A2.556,2.556,0,0,0,94.2,165.5Zm-11.075,7.554-3.33-6.942-.86,6.376-2.5-.338,1.387-10.29,2.5.338,3.334,6.913.856-6.347,2.5.338-1.387,10.29Zm17.273-10.071,2.505-.338,1.387,10.29-2.505.338Zm5.037,7.955,2.679-.619-1.878-8.143,2.463-.569,1.878,8.143,2.679-.619.456,1.974-7.822,1.806Zm5.8-9.85,2.544-.83,1.159,1.551,3.682-1.2.022-1.936,2.515-.821-.351,11.037-2.783.908Zm4.926,2.375,2.4,3.215.03-4.008Zm-56.776,2.779,2.166-7.393L56.358,164.7l-2.465-1.285,1.917-7.523L50.983,161.9,48.57,160.64l7.193-7.958,2.714,1.415-1.687,6.826,4.676-5.268,2.714,1.415L61.72,167.495Zm64.857-10.178,2.8-1.479,8.1,7.46-2.379,1.258-5.935-5.729,1.373,8.141-2.366,1.251Zm-79.007,1.647,6-8.473,2.063,1.462-6,8.473Zm91.4.476a5.669,5.669,0,0,1-3.339-4.344,5.051,5.051,0,0,1,.362-2.679,5.62,5.62,0,0,1,4.243-3.275,5.081,5.081,0,0,1,2.694.322,5.592,5.592,0,0,1,3.345,4.34,5.107,5.107,0,0,1-.378,2.683,5.634,5.634,0,0,1-4.249,3.279,5.18,5.18,0,0,1-.766.058A5,5,0,0,1,136.574,158.189Zm.135-7.37a2.549,2.549,0,0,0-1.069,1.871,3.591,3.591,0,0,0,2.677,3.473,2.556,2.556,0,0,0,2.076-.565,2.591,2.591,0,0,0,1.09-1.868,3.613,3.613,0,0,0-2.686-3.485,2.493,2.493,0,0,0-.437-.039A2.669,2.669,0,0,0,136.709,150.819Zm-95.3,3.814,5.5-6.383-2.507-2.165,1.275-1.478,4.421,3.817-6.78,7.861ZM140.28,145.2l1.738-1.837,7.555,1.332-4.648-4.4,1.738-1.837,7.535,7.14-1.738,1.836-7.576-1.352,4.669,4.424-1.738,1.837ZM35.7,149.284l6.121-5.795-2.276-2.406,1.417-1.342,4.013,4.244-7.538,7.137Zm111.835-11.866L149,135.354l7.667.25-5.223-3.7,1.461-2.064,8.468,6-1.461,2.064-7.691-.267,5.247,3.719L156,143.419ZM26.663,133.739a4.755,4.755,0,0,1-2.527-.764,5.39,5.39,0,0,1-1.855-2.072,5.169,5.169,0,0,1-.615-3.255,4.689,4.689,0,0,1,1.531-2.8l1.3,2.459a2.247,2.247,0,0,0-.465,1.241,2.479,2.479,0,0,0,.3,1.3,2.415,2.415,0,0,0,1.6,1.294,3.144,3.144,0,0,0,2.26-.375,3.148,3.148,0,0,0,1.583-1.657,2.418,2.418,0,0,0-.165-2.054,2.476,2.476,0,0,0-.905-.985,2.243,2.243,0,0,0-1.287-.315l-1.3-2.459a4.65,4.65,0,0,1,3.168.316,5.192,5.192,0,0,1,2.334,2.346,5.393,5.393,0,0,1,.666,2.7,4.773,4.773,0,0,1-.787,2.515,5.535,5.535,0,0,1-2.107,1.867,5.606,5.606,0,0,1-2.643.694Zm126.747-5.167,1.255-2.2,9.009,5.152-1.254,2.2ZM17.841,120.627l3.87-1.247-1.205-3.745-3.87,1.247-.775-2.408,9.878-3.182.775,2.408-4.067,1.31,1.205,3.745,4.067-1.31.775,2.408-9.878,3.182Zm146.914-4.273a5.374,5.374,0,0,1-2.488-1.258,4.623,4.623,0,0,1-1.363-2.268,6.051,6.051,0,0,1,0-2.935l.864-3.793,10.118,2.308-.864,3.793a6.041,6.041,0,0,1-1.272,2.653,4.648,4.648,0,0,1-2.2,1.447,4.939,4.939,0,0,1-1.447.212A6.05,6.05,0,0,1,164.755,116.355Zm-1.68-6.133a3.055,3.055,0,0,0,.268,2.352,2.967,2.967,0,0,0,1.984,1.272,2.771,2.771,0,0,0,3.628-2.282l.266-1.168-5.881-1.342ZM14.613,108.508l-.491-2.887,9.6-5.447.449,2.639-1.7.92.65,3.82,1.911.3.444,2.61Zm2.511-1.9,3.959.616-.429-2.522Zm145.022-1.821.191-2.522,6.7-3.733-6.382-.485.191-2.522,10.347.786-.191,2.522-6.732,3.731,6.412.487-.191,2.522ZM13.314,97.414l6.357-4.341-6.43.111L13.2,90.655l10.376-.18L23.617,93,17.29,97.346l6.4-.111.044,2.529-10.376.18Zm149.579-4.968,1.781-.758-.293-3.864-1.875-.481-.2-2.64,10.631,2.96.222,2.92-10.063,4.532Zm3.677-1.555,3.691-1.571-3.884-.981ZM18.4,88.853a5.527,5.527,0,0,1-2.627-1.034,4.791,4.791,0,0,1-1.61-2.105,5.491,5.491,0,0,1-.3-2.8,5.317,5.317,0,0,1,1.314-2.994,4.255,4.255,0,0,1,2.7-1.344l-.373,2.77a1.892,1.892,0,0,0-.892.693,2.64,2.64,0,0,0-.436,1.187,2.543,2.543,0,0,0,.535,2.057A3.058,3.058,0,0,0,18.743,86.3a3.094,3.094,0,0,0,2.323-.47,2.827,2.827,0,0,0,1.084-2.01,2.586,2.586,0,0,0-.258-1.624,2.685,2.685,0,0,0-1.222-1.113l-.429,3.181-1.846-.249.735-5.453,2.329.314a4.966,4.966,0,0,1,1.616,1.181,5.031,5.031,0,0,1,1.075,1.869,5.281,5.281,0,0,1,.186,2.383A5.535,5.535,0,0,1,23.3,86.941a4.794,4.794,0,0,1-2.1,1.611,5.216,5.216,0,0,1-1.941.36A6.416,6.416,0,0,1,18.4,88.853ZM15.472,74.6l1.714-6.125,1.95.546L18.1,72.712l2.021.566.913-3.262,1.879.527L22,73.805l2.193.614L25.23,70.73l1.95.547L25.466,77.4Zm143.572-3.659,4.423-6.271L157.505,67l-.92-2.356,9.666-3.778.92,2.356-4.451,6.281,5.989-2.341.92,2.356L159.964,73.3Zm-2.306-9.788a5.034,5.034,0,0,1-1.986-.839,5.284,5.284,0,0,1-1.587-1.787,5.532,5.532,0,0,1-.764-2.719,4.8,4.8,0,0,1,.7-2.556,5.909,5.909,0,0,1,4.768-2.7,4.786,4.786,0,0,1,2.554.7,5.49,5.49,0,0,1,1.931,2.051,5.315,5.315,0,0,1,.761,3.18,4.257,4.257,0,0,1-1.342,2.7L160.4,56.763a1.894,1.894,0,0,0,.292-1.091,2.641,2.641,0,0,0-.369-1.21,2.539,2.539,0,0,0-1.669-1.316,3.057,3.057,0,0,0-2.236.415,3.1,3.1,0,0,0-1.568,1.779,2.829,2.829,0,0,0,.35,2.257,2.586,2.586,0,0,0,1.186,1.138,2.68,2.68,0,0,0,1.646.148l-1.578-2.794,1.621-.917,2.706,4.79-2.046,1.157a4.75,4.75,0,0,1-1.069.12A5.3,5.3,0,0,1,156.738,61.155ZM30.829,55.715l-7.792-.678,1.533-2.425,4.748.624-2.607-4.012,1.517-2.4,3.952,6.753,2.9,1.834-1.351,2.138Zm117.517-4.454,8.218-6.341,1.544,2-8.218,6.341Zm-112.9-.926a5.589,5.589,0,0,1-4.146-3.58,5.1,5.1,0,0,1-.167-2.7,5.635,5.635,0,0,1,3.506-4.065,4.989,4.989,0,0,1,2.688-.219,5.665,5.665,0,0,1,4.142,3.586,5.051,5.051,0,0,1,.183,2.7,5.621,5.621,0,0,1-3.5,4.059,5.06,5.06,0,0,1-1.749.313A5.3,5.3,0,0,1,35.451,50.335ZM36.03,42.1a2.558,2.558,0,0,0-1.92.97,2.59,2.59,0,0,0-.693,2.049A3.613,3.613,0,0,0,36.747,48a2.575,2.575,0,0,0,1.93-.981,2.548,2.548,0,0,0,.672-2.048A3.6,3.6,0,0,0,36.1,42.1Zm110.7,6.611a4.479,4.479,0,0,1-1.67-1.225,5.347,5.347,0,0,1-1.084-1.768,3.328,3.328,0,0,1-.145-1.8,2.991,2.991,0,0,1,.921-1.588l1.793,2.007a1.306,1.306,0,0,0-.39.885,1.285,1.285,0,0,0,.365.864,1.388,1.388,0,0,0,.784.489.865.865,0,0,0,.751-.236.85.85,0,0,0,.3-.617,2.094,2.094,0,0,0-.115-.75,10.285,10.285,0,0,0-.439-1.046,11.637,11.637,0,0,1-.631-1.638,3.031,3.031,0,0,1-.046-1.427,2.555,2.555,0,0,1,.874-1.4,2.719,2.719,0,0,1,2.391-.73,4.313,4.313,0,0,1,2.435,1.493,4.365,4.365,0,0,1,1.231,2.609,2.938,2.938,0,0,1-.954,2.361l-1.823-2.04a1.069,1.069,0,0,0,.343-.8,1.3,1.3,0,0,0-.366-.843,1.087,1.087,0,0,0-.675-.389.88.88,0,0,0-.71.259.871.871,0,0,0-.269.875,7.763,7.763,0,0,0,.533,1.507,13.692,13.692,0,0,1,.6,1.652,3.115,3.115,0,0,1,.052,1.412,2.413,2.413,0,0,1-.83,1.357,2.987,2.987,0,0,1-1.5.738,2.887,2.887,0,0,1-.5.043A3.327,3.327,0,0,1,146.735,48.713Zm-10-9.264,6.7-7.926,4.852,4.109-1.309,1.547L144.058,34.7l-1.356,1.6,2.584,2.188-1.261,1.49L141.441,37.8l-1.471,1.738,2.922,2.475-1.308,1.547Zm-92.3,2.12a4.628,4.628,0,0,1-1.99-1.384l-4.128-4.62L40.2,33.878l4.138,4.631a2.054,2.054,0,0,0,1.3.764,1.728,1.728,0,0,0,1.338-.522,1.778,1.778,0,0,0,.679-1.282,2.016,2.016,0,0,0-.6-1.385l-4.138-4.631L44.8,29.767l4.128,4.62a4.407,4.407,0,0,1,1.126,2.147,3.793,3.793,0,0,1-.219,2.141A5,5,0,0,1,48.5,40.523a4.869,4.869,0,0,1-1.957,1.106,3.554,3.554,0,0,1-.948.13A3.711,3.711,0,0,1,44.437,41.569Zm2.994-13.474,3.562-2.306a4.67,4.67,0,0,1,1.989-.777,2.95,2.95,0,0,1,1.725.284,3.278,3.278,0,0,1,1.263,1.164,3.091,3.091,0,0,1,.514,1.87,3.146,3.146,0,0,1-.819,1.9l4.243,2.15-2.4,1.551-3.94-2.118-.509.33,2.128,3.29-2.122,1.374Zm4.578-.463-1.315.852,1.4,2.161,1.315-.852a1.436,1.436,0,0,0,.69-.852,1.283,1.283,0,0,0-.23-1,1.243,1.243,0,0,0-.8-.594,1,1,0,0,0-.2-.02A1.612,1.612,0,0,0,52.009,27.632Zm81.753,8.674a6.046,6.046,0,0,1-2.759-1l-3.272-2.1,5.606-8.739,3.272,2.1a6.035,6.035,0,0,1,2.062,2.1,4.653,4.653,0,0,1,.612,2.564,5.794,5.794,0,0,1-2.927,4.562,4.577,4.577,0,0,1-2.158.532Q133.983,36.325,133.762,36.306Zm-2.721-3.576,1.008.647a3.049,3.049,0,0,0,2.3.547,2.965,2.965,0,0,0,1.87-1.436,2.774,2.774,0,0,0-.913-4.19l-1.008-.647Zm-65.2-14.391,2.872-.82,4.772,6.112.8-7.7,2.857-.816L79.989,25.1l-2.431.694L75.85,19.8l-.523,6.626-1.962.56-3.958-5.361,1.712,6-2.431.694Zm43.823,7.727-3.79-.864,2.306-10.124,3.791.864a6.028,6.028,0,0,1,2.651,1.272,4.649,4.649,0,0,1,1.447,2.2,5.8,5.8,0,0,1-1.2,5.285,4.623,4.623,0,0,1-2.267,1.364,5.416,5.416,0,0,1-1.4.18A6.879,6.879,0,0,1,109.662,26.066Zm-.84-2.437,1.168.266a3.05,3.05,0,0,0,2.35-.268,2.969,2.969,0,0,0,1.271-1.986,2.773,2.773,0,0,0-2.281-3.63l-1.168-.266Zm-24.612.394a5.083,5.083,0,0,1-2.074-1.749,5.593,5.593,0,0,1-.414-5.464,5.1,5.1,0,0,1,1.788-2.034,5.63,5.63,0,0,1,5.351-.406,4.992,4.992,0,0,1,2.059,1.742,5.67,5.67,0,0,1,.407,5.465,5.045,5.045,0,0,1-1.773,2.04,5.371,5.371,0,0,1-2.616.881q-.232.018-.458.018A5.342,5.342,0,0,1,84.21,24.023Zm2.1-7.843a2.587,2.587,0,0,0-1.936.963,3.136,3.136,0,0,0-.578,2.254,3.139,3.139,0,0,0,.91,2.134,2.574,2.574,0,0,0,2.059.667,2.546,2.546,0,0,0,1.92-.976,3.145,3.145,0,0,0,.579-2.239,3.139,3.139,0,0,0-.91-2.134,2.49,2.49,0,0,0-1.778-.678Q86.443,16.17,86.307,16.181Zm12.557,8.271a5.418,5.418,0,0,1-2.624-.881,5.087,5.087,0,0,1-1.787-2.042,5.594,5.594,0,0,1,.414-5.464,5.1,5.1,0,0,1,2.074-1.741,5.63,5.63,0,0,1,5.351.406,4.993,4.993,0,0,1,1.773,2.033,5.671,5.671,0,0,1-.421,5.464,5.046,5.046,0,0,1-2.06,1.75,5.289,5.289,0,0,1-2.261.493Q99.1,24.47,98.864,24.452Zm-1.429-7.658a3.136,3.136,0,0,0-.911,2.141,3.139,3.139,0,0,0,.579,2.247,2.575,2.575,0,0,0,1.935.97,2.546,2.546,0,0,0,2.045-.675,3.145,3.145,0,0,0,.91-2.126,3.141,3.141,0,0,0-.578-2.247,2.556,2.556,0,0,0-1.92-.969q-.14-.011-.275-.011A2.509,2.509,0,0,0,97.435,16.794Z" transform="translate(-12.688 -13.331)" fill="#FFFFFF" stroke="#000000" stroke-width="1" stroke-opacity="0"></path>
</svg>