<svg xmlns="http://www.w3.org/2000/svg" width="28.167" height="25.189" viewBox="0 0 28.167 25.189">
  <path id="Path_1" data-name="Path 1" d="M-3226.068-1660.811a5.986,5.986,0,0,0-5.932-5.9,6.042,6.042,0,0,0,5.933-6.008,5.967,5.967,0,0,0,1.764,4.244,5.978,5.978,0,0,0,4.14,1.763,6,6,0,0,0-5.9,5.9Zm16.33-1.811a5.985,5.985,0,0,0-5.932-5.9,6.042,6.042,0,0,0,5.933-6.008,5.969,5.969,0,0,0,1.764,4.244,5.978,5.978,0,0,0,4.14,1.763,6,6,0,0,0-5.9,5.9Zm-9.092-5.418a9.085,9.085,0,0,0-9.047-8.913,9.059,9.059,0,0,0,9.048-9.048,8.991,8.991,0,0,0,2.655,6.395,8.985,8.985,0,0,0,6.394,2.653,9.087,9.087,0,0,0-9.048,8.913Z" transform="translate(3232 1686)"/>
</svg>
