<svg xmlns="http://www.w3.org/2000/svg" width="107.15" height="13.37" viewBox="0 0 107.15 13.37">
  <g id="Group_8" data-name="Group 8" transform="translate(156.147 -500)">
    <path id="Path_42" data-name="Path 42" d="M282.549,469.743a7.179,7.179,0,0,1,3.429.806,5.877,5.877,0,0,1,2.379,2.326,7.722,7.722,0,0,1,0,7.106,5.874,5.874,0,0,1-2.379,2.325,7.712,7.712,0,0,1-6.869,0,5.852,5.852,0,0,1-2.39-2.325,7.722,7.722,0,0,1,0-7.106,5.855,5.855,0,0,1,2.39-2.326,7.246,7.246,0,0,1,3.44-.806" transform="translate(-432 30.257)" fill="#83846a"/>
    <path id="Path_43" data-name="Path 43" d="M297.485,469.743a7.182,7.182,0,0,1,3.429.806,5.875,5.875,0,0,1,2.378,2.326,7.722,7.722,0,0,1,0,7.106,5.872,5.872,0,0,1-2.378,2.325,7.714,7.714,0,0,1-6.87,0,5.859,5.859,0,0,1-2.39-2.325,7.722,7.722,0,0,1,0-7.106,5.861,5.861,0,0,1,2.39-2.326,7.25,7.25,0,0,1,3.441-.806" transform="translate(-428.18 30.257)" fill="#ca6643"/>
    <path id="Path_44" data-name="Path 44" d="M312.421,469.743a7.185,7.185,0,0,1,3.429.806,5.875,5.875,0,0,1,2.378,2.326,7.722,7.722,0,0,1,0,7.106,5.872,5.872,0,0,1-2.378,2.325,7.714,7.714,0,0,1-6.87,0,5.852,5.852,0,0,1-2.39-2.325,7.722,7.722,0,0,1,0-7.106,5.855,5.855,0,0,1,2.39-2.326,7.25,7.25,0,0,1,3.441-.806" transform="translate(-424.359 30.257)" fill="#dfad5c"/>
    <path id="Path_45" data-name="Path 45" d="M312.421,469.743a7.185,7.185,0,0,1,3.429.806,5.875,5.875,0,0,1,2.378,2.326,7.722,7.722,0,0,1,0,7.106,5.872,5.872,0,0,1-2.378,2.325,7.714,7.714,0,0,1-6.87,0,5.852,5.852,0,0,1-2.39-2.325,7.722,7.722,0,0,1,0-7.106,5.855,5.855,0,0,1,2.39-2.326,7.25,7.25,0,0,1,3.441-.806" transform="translate(-405.603 30.257)" fill="#567b74"/>
    <path id="Path_46" data-name="Path 46" d="M312.421,469.743a7.185,7.185,0,0,1,3.429.806,5.875,5.875,0,0,1,2.378,2.326,7.722,7.722,0,0,1,0,7.106,5.872,5.872,0,0,1-2.378,2.325,7.714,7.714,0,0,1-6.87,0,5.852,5.852,0,0,1-2.39-2.325,7.722,7.722,0,0,1,0-7.106,5.855,5.855,0,0,1,2.39-2.326,7.25,7.25,0,0,1,3.441-.806" transform="translate(-386.848 30.257)" fill="#ab3043"/>
    <path id="Path_47" data-name="Path 47" d="M312.421,469.743a7.185,7.185,0,0,1,3.429.806,5.875,5.875,0,0,1,2.378,2.326,7.722,7.722,0,0,1,0,7.106,5.872,5.872,0,0,1-2.378,2.325,7.714,7.714,0,0,1-6.87,0,5.852,5.852,0,0,1-2.39-2.325,7.722,7.722,0,0,1,0-7.106,5.855,5.855,0,0,1,2.39-2.326,7.25,7.25,0,0,1,3.441-.806" transform="translate(-368.091 30.257)" fill="#20305b"/>
  </g>
</svg>
