<svg xmlns="http://www.w3.org/2000/svg" width="209.39" height="119.892" viewBox="0 0 209.39 119.892">
  <path id="Path_7" data-name="Path 7" d="M130.989,114.763l-.078-.228v-23.6l.67-.226,3.966,5.178.077.226v23.552l-.668.227Zm-38.611-1.715V105l-.052.022c-.175.067-.348.141-.519.22s-.347.168-.55.282-.427.251-.67.409a6.77,6.77,0,0,0-.773.6q-.44.387-.95.919-.146.169-.378.449c-.186.225-.355.432-.51.627l-.267.332-3.5-3.672,1.257-1.3a2.329,2.329,0,0,0-.491-.258,2.724,2.724,0,0,0-.967-.166,2.531,2.531,0,0,0-.441.047,6.156,6.156,0,0,0-.626.152,1.433,1.433,0,0,0-.549.316,2.733,2.733,0,0,0-.524.662,3.548,3.548,0,0,0-.373.892,3.888,3.888,0,0,0-.124,1,2.7,2.7,0,0,0,.887,2.025c1.4,1.471,2.957,2.924,4.411,4.36L84.854,115l-4.359-4.376Q79.278,109.4,78,108.079l-.018-.022a5.954,5.954,0,0,1-.954-1.541A4.232,4.232,0,0,1,76.7,104.9a2.87,2.87,0,0,1,.027-.332c.019-.14.043-.305.075-.492v-.014a6.01,6.01,0,0,1,.557-1.61,4.888,4.888,0,0,1,.962-1.287,5.856,5.856,0,0,1,1.345-.95,8.172,8.172,0,0,1,1.709-.645,3.555,3.555,0,0,1,1.362-.02,14.071,14.071,0,0,1,1.991.454,8.466,8.466,0,0,1,2.023.851,4.547,4.547,0,0,1,1.079.882l.163-.133a3.767,3.767,0,0,1,.337-.243,4.931,4.931,0,0,1,.738-.427,4.269,4.269,0,0,1,.77-.274c.223-.059.44-.114.656-.166s.379-.087.53-.115a4.74,4.74,0,0,1,.5-.078,4.977,4.977,0,0,1,.51-.027h.343V97.3H72.289v7.646H67.136a9.777,9.777,0,0,0-3.312.455,2.686,2.686,0,0,0-1.166.767,1.682,1.682,0,0,0-.358,1.081,1.776,1.776,0,0,0,.527,1.475,1.926,1.926,0,0,0,.642.332,2.88,2.88,0,0,0,.848.114,5.574,5.574,0,0,0,1.066-.14,5.269,5.269,0,0,1,.489-.92,4.431,4.431,0,0,1,.784-.881,3.275,3.275,0,0,1,.986-.585,3.183,3.183,0,0,1,1.12-.2,7.848,7.848,0,0,1,2.561.356,2.554,2.554,0,0,1,1.552,1.34,4.568,4.568,0,0,1,.312.871,3.684,3.684,0,0,1,.107.864,3.167,3.167,0,0,1-.589,1.942,3.233,3.233,0,0,1-1.229.981l2.968,3.584-3.533,1.385-3.282-3.939c-.116.024-.234.045-.352.06a4.845,4.845,0,0,1-.609.04,6.026,6.026,0,0,1-2.674-.637,8.972,8.972,0,0,1-2.477-1.868,9.452,9.452,0,0,1-1.975-2.972A9,9,0,0,1,58.878,105a4.158,4.158,0,0,1,.436-1.887,4.776,4.776,0,0,1,1.289-1.556,5.982,5.982,0,0,1,3.882-1.373H68.77V97.3H55.562v19.953l-.637.263-3.584-3.592-.11-.263v-2.336a6.3,6.3,0,0,1-.527.5,6.2,6.2,0,0,1-1.5.945,8.239,8.239,0,0,1-1.7.545,9.092,9.092,0,0,1-1.825.182q-2.175,0-4.389-2.516a9.451,9.451,0,0,1-1.641-2.54,6.823,6.823,0,0,1-.555-2.677,4.879,4.879,0,0,1,.659-2.467,6.953,6.953,0,0,1,1.93-2.085,9.211,9.211,0,0,1,2.3-1.27,6.842,6.842,0,0,1,2.362-.43,5.1,5.1,0,0,1,1.661.3,8.189,8.189,0,0,1,1.733.859,9.2,9.2,0,0,1,1.308.948l.181.166V97.3H38.854V92.97h61.965V97.3h-3.3v20.847Zm-48.826-7.3a4.641,4.641,0,0,0-.65.481,2.343,2.343,0,0,0-.521.6,1.052,1.052,0,0,0-.152.525,1.677,1.677,0,0,0,.155.719,1.922,1.922,0,0,0,.481.617,3.021,3.021,0,0,0,.743.479,3.157,3.157,0,0,0,.87.244,2.252,2.252,0,0,0,.8-.076,5.819,5.819,0,0,0,1.1-.416,1.717,1.717,0,0,0,.179-.108l-2.834-3.154a1.383,1.383,0,0,0-.171.085Zm3.062-1.508a5.5,5.5,0,0,0-.695.253l-.052.023,2.781,3.149.163-.081q.219-.112.5-.29a5.869,5.869,0,0,0,.538-.388c.173-.138.35-.3.529-.471h0a4.684,4.684,0,0,0,.777-.974q-.139-.18-.288-.338a3.707,3.707,0,0,0-.463-.417,3.562,3.562,0,0,0-.5-.321,3.149,3.149,0,0,0-.525-.219,3.876,3.876,0,0,0-.537-.131,2.943,2.943,0,0,0-.49-.042,6.02,6.02,0,0,0-1.738.242Zm70.835,9.593c-.117.024-.234.045-.353.06a4.845,4.845,0,0,1-.609.04,6.017,6.017,0,0,1-2.673-.637,8.936,8.936,0,0,1-2.478-1.868,9.436,9.436,0,0,1-1.976-2.972A8.983,8.983,0,0,1,108.7,105a4.159,4.159,0,0,1,.437-1.887,4.793,4.793,0,0,1,1.287-1.556,5.987,5.987,0,0,1,3.883-1.373h4.286V97.3H108.077V92.97h10.837c-.1-.139-.207-.272-.318-.4a6.179,6.179,0,0,0-.812-.786l-.008-.006a10.785,10.785,0,0,0-1.224-.9,4.068,4.068,0,0,0-.608-.317,3.657,3.657,0,0,0-.639-.208q-.667-.157-.862-.216a5.42,5.42,0,0,0-.727-.037,5.257,5.257,0,0,0-.569.032q-.3.034-.648.1l-.234.047-3.317-4.61.6-.091c.329-.049.641-.086.932-.111s.58-.038.843-.038a9.857,9.857,0,0,1,5.066,1.536h0a8.584,8.584,0,0,1,.886.625,10.6,10.6,0,0,1,.856.77l.012.012c.158.175.362.4.606.69q.332.387.839.994.37.444.665.828t.55.752c.155.224.312.466.472.723q.186.3.361.607h5.008V97.3H122.1v7.646h-5.153a9.79,9.79,0,0,0-3.313.455,2.684,2.684,0,0,0-1.164.767,1.672,1.672,0,0,0-.359,1.081,1.778,1.778,0,0,0,.526,1.475,1.935,1.935,0,0,0,.643.332,2.876,2.876,0,0,0,.848.114,5.576,5.576,0,0,0,1.065-.14,5.27,5.27,0,0,1,.49-.92,4.375,4.375,0,0,1,.784-.881,3.271,3.271,0,0,1,.985-.585,3.18,3.18,0,0,1,1.121-.2,7.842,7.842,0,0,1,2.56.356,2.557,2.557,0,0,1,1.552,1.34,4.387,4.387,0,0,1,.311.871,3.64,3.64,0,0,1,.108.864,3.172,3.172,0,0,1-.588,1.942,3.225,3.225,0,0,1-1.231.981l2.969,3.584-3.532,1.385Zm23.714-37.472-5.05-6.089c-2.434,7.819-9.715,12.782-18.1,12.782a18.988,18.988,0,0,1-14.8-6.692l-5.74-6.922V82.467h-11l-4.96-5.977-.572,1.137H74.416l-5.071-6.114V82.467h-11l-6.474-7.806V43.413H43.256l-6.474-7.807V18.725H34.736l-6.474-7.807V.58H56.3l.521.629V.58h11L70.04,3.251V.58h11l6.473,7.808V25.269h6.161l.279.335V.58H118.8l3.314,4C125.05,1.2,129.847,0,134.215,0c4.52,0,9.592,1.31,13.04,4.367l.067.06,6.437,7.762L148.573,20.9l3.894,4.7a9.944,9.944,0,0,1,2.333,6.5,10.536,10.536,0,0,1-2.649,7.049,18.749,18.749,0,0,1,12.672,6.481l.051.06c.014.017.031.035.046.054l5.74,6.922V39.635h14.51a18.415,18.415,0,0,1,14.264,6.351l.052.061.043.05,5.84,7.043a17.743,17.743,0,0,1,4.02,11.432c0,10.4-8.1,17.894-18.379,17.894H177.138L171.4,75.544a19.666,19.666,0,0,1-30.234.812ZM132.357,57.53c0,9.827,7.649,17.281,17.766,17.281s17.766-7.454,17.766-17.281-7.649-17.282-17.766-17.282S132.357,47.7,132.357,57.53Zm-37.95,0c0,9.827,7.647,17.281,17.764,17.281s17.766-7.454,17.766-17.281-7.647-17.282-17.766-17.282S94.406,47.7,94.406,57.53Zm77.451,16.7H185.17c9.827,0,17.186-7.165,17.186-16.7S195,40.83,185.17,40.83H171.858Zm-90.668,0h9.246V40.83H79.157L71.848,55.351,64.49,40.829H53.065v33.4h9.246v-18.4L69.137,69.39h5.228L81.19,55.835Zm38.164-43.7a24.007,24.007,0,0,0,14.764,5.228c7.7,0,13.651-4.308,13.651-10.7,0-8.132-9.681-10.5-12.489-11.134-2.856-.629-5.035-1.452-5.035-2.711,0-1.065,1.55-1.791,3.873-1.791a13.317,13.317,0,0,1,8.133,2.905l4.211-7.069c-2.565-2.274-6.923-4.065-12.247-4.065-8.133,0-13.457,4.114-13.457,10.359,0,5.906,4.647,9.343,11.908,11.134,3.727.92,5.615,1.5,5.615,2.758,0,1.308-1.984,2.083-4.211,2.083a16.576,16.576,0,0,1-10.021-4.066ZM95.149,35.176h23.333V26.463H104.395V22.735h12.3V14.022h-12.3V10.488H118.24V1.775H95.149Zm-23.914,0h21.88V26.463H80.481V1.775H71.235Zm-13.216,0h9.245V1.775H58.019ZM29.457,10.488h8.52V35.176h9.245V10.488h8.521V1.775H29.457ZM141.845,57.53a8.278,8.278,0,1,1,8.277,8.375,8.147,8.147,0,0,1-8.277-8.375Zm7.034,7.043v.037a7.759,7.759,0,0,0,1.243.1,6.954,6.954,0,0,0,7.084-7.18v-.038a7.763,7.763,0,0,0-1.244-.1,6.954,6.954,0,0,0-7.082,7.181ZM103.893,57.53A8.278,8.278,0,1,1,112.17,65.9a8.147,8.147,0,0,1-8.277-8.375Zm7.034,7.043v.037a7.768,7.768,0,0,0,1.243.1,6.955,6.955,0,0,0,7.085-7.18v-.038a7.779,7.779,0,0,0-1.244-.1,6.955,6.955,0,0,0-7.083,7.181Zm70.177.944V49.542h3.873a7.988,7.988,0,1,1,0,15.976Zm7.034-1.936a6.619,6.619,0,0,0,3.528-5.754,7.63,7.63,0,0,0-.85-.049h-2.678Zm-6.02-33.266V22.88h-4.183a5.1,5.1,0,0,1,1.346,3.641,5.281,5.281,0,0,1-1.026,3.131,3.4,3.4,0,0,1-1.341,1.125,3.885,3.885,0,0,1-.833.278,4.345,4.345,0,0,1-.9.093,6.676,6.676,0,0,1-3.773-1.334,8.537,8.537,0,0,1-1.653-1.469,7.2,7.2,0,0,1-1.128-1.768l-3.038-6.862,1.971-1.068c.824,1.552,2.933,5.035,3.4,6.418a2.915,2.915,0,0,0,.942,1.147,2.2,2.2,0,0,0,1.265.366,1.944,1.944,0,0,0,.527-.075,2.648,2.648,0,0,0,.559-.235.832.832,0,0,0,.338-.328,1.07,1.07,0,0,0,.114-.518,3.364,3.364,0,0,0-.48-1.52c-.173-.322-.357-.636-.549-.941s-.4-.607-.619-.9l-3.03-3.986h12.085V14.517H165.106V10.186h28.748q-.163-.228-.341-.437a5.984,5.984,0,0,0-.832-.811l-.008-.006a11.063,11.063,0,0,0-1.224-.9,4.308,4.308,0,0,0-.61-.317,3.816,3.816,0,0,0-.639-.208q-.664-.154-.86-.215a5.966,5.966,0,0,0-1.3-.005c-.2.023-.415.058-.648.1l-.234.047-3.317-4.61.6-.09c.329-.05.64-.086.932-.111s.58-.037.842-.037a9.855,9.855,0,0,1,5.066,1.534h0a8.8,8.8,0,0,1,.887.626,10.554,10.554,0,0,1,.856.768l.011.012q.238.263.607.691.33.385.838,1,.369.443.665.828c.2.263.387.514.55.751s.334.5.49.752c.121.2.247.41.377.64H201.6v4.331h-3.68V34.47l-.652.247-3.967-4.5-.093-.246V14.517h-5.947v20.84ZM11.414,19.821l.859-4.029H7.93l-.858,4.029H2.938l.862-4.03H0V11.735H4.654L5.33,8.589H1.638V4.533H6.214L7.046.58H11.18l-.832,3.954H14.69L15.522.58h4.161L18.85,4.533H22.1V8.589H17.966l-.676,3.146h3.173v4.056h-4.03l-.859,4.029ZM8.788,11.735H13.13l.676-3.146H9.464Z" fill="#ed2788"/>
</svg>
