<svg xmlns="http://www.w3.org/2000/svg" width="50.882" height="13.371" viewBox="0 0 50.882 13.371">
  <g id="Group_1" data-name="Group 1" transform="translate(-678.268 -410)">
    <path id="Path_45" data-name="Path 45" d="M312.421,469.743a7.184,7.184,0,0,1,3.429.806,5.875,5.875,0,0,1,2.378,2.326,7.722,7.722,0,0,1,0,7.106,5.872,5.872,0,0,1-2.378,2.325,7.714,7.714,0,0,1-6.87,0,5.852,5.852,0,0,1-2.39-2.325,7.722,7.722,0,0,1,0-7.106,5.855,5.855,0,0,1,2.39-2.326,7.25,7.25,0,0,1,3.441-.806" transform="translate(372.544 -59.742)" fill="#567b74"/>
    <path id="Path_46" data-name="Path 46" d="M312.421,469.743a7.184,7.184,0,0,1,3.429.806,5.875,5.875,0,0,1,2.378,2.326,7.722,7.722,0,0,1,0,7.106,5.872,5.872,0,0,1-2.378,2.325,7.714,7.714,0,0,1-6.87,0,5.852,5.852,0,0,1-2.39-2.325,7.722,7.722,0,0,1,0-7.106,5.855,5.855,0,0,1,2.39-2.326,7.25,7.25,0,0,1,3.441-.806" transform="translate(391.299 -59.742)" fill="#ab3043"/>
    <path id="Path_47" data-name="Path 47" d="M312.421,469.743a7.184,7.184,0,0,1,3.429.806,5.875,5.875,0,0,1,2.378,2.326,7.722,7.722,0,0,1,0,7.106,5.872,5.872,0,0,1-2.378,2.325,7.714,7.714,0,0,1-6.87,0,5.852,5.852,0,0,1-2.39-2.325,7.722,7.722,0,0,1,0-7.106,5.855,5.855,0,0,1,2.39-2.326,7.25,7.25,0,0,1,3.441-.806" transform="translate(410.056 -59.742)" fill="#20305b"/>
  </g>
</svg>
