<svg xmlns="http://www.w3.org/2000/svg" viewBox="0 0 134.61 42.72"><defs><style>.cls-1{fill:#ed2788;}.cls-2{fill:#fff;}.cls-3{fill:#231f20;fill-rule:evenodd;}</style></defs><title>Asset 1</title><g id="Layer_2" data-name="Layer 2"><g id="Layer_1-2" data-name="Layer 1"><rect class="cls-1" width="134.61" height="42.72"/><path class="cls-2" d="M106.81,26.61H100L111.17,5.54h8l11,21.07h-6.86l-2-3.5H108.8ZM111.17,18H119l-4-7.46Z"/><polygon class="cls-2" points="29.09 26.84 22.67 26.84 22.67 10.95 13.87 10.95 13.87 5.79 37.89 5.79 37.89 10.95 29.09 10.95 29.09 26.84"/><rect class="cls-2" x="4.34" y="5.79" width="6.43" height="21.04"/><polygon class="cls-2" points="53.79 11.73 62.18 26.84 69.01 26.84 57.78 5.79 50 5.79 38.87 26.84 45.88 26.84 53.79 11.73"/><path class="cls-3" d="M33.58,20.5l8.24.77.74-1.4Zm14.88,1.4,10.06,1L54.9,19l-5.12.36Z"/><path class="cls-2" d="M91.15,13.38v-.21a2,2,0,0,0-.82-1.8,4.52,4.52,0,0,0-2.57-.57H82.61c-2.2,0-3.62.26-4.24.8s-1,1.64-1,3.34v2.92a3.86,3.86,0,0,0,1,3.13q1.05.84,4.14.84h3.73c2,0,3.39-.2,4-.61a2.5,2.5,0,0,0,1-2.28v-.23h6.52a1.1,1.1,0,0,0,0,.16c0,.61,0,1.07,0,1.37a9.13,9.13,0,0,1-.51,3.34,4.58,4.58,0,0,1-1.59,2.1A6.74,6.74,0,0,1,93,26.77a29,29,0,0,1-5,.32H80.82A23.66,23.66,0,0,1,76,26.74a7,7,0,0,1-2.66-1.2,5.92,5.92,0,0,1-1.85-2.47,10.27,10.27,0,0,1-.58-3.69V13.64q0-4.53,2.15-6.31t7.79-1.79H88a29.78,29.78,0,0,1,5.1.31,6.06,6.06,0,0,1,2.59,1A4.48,4.48,0,0,1,97.17,9a9.67,9.67,0,0,1,.47,3.25c0,.3,0,.55,0,.71s0,.32,0,.47Z"/><path class="cls-2" d="M130.11,3.94h.18a2,2,0,0,0,.46,0,.24.24,0,0,0,.14-.1.25.25,0,0,0,.06-.17.27.27,0,0,0,0-.15.31.31,0,0,0-.15-.1,2.06,2.06,0,0,0-.46,0h-.18Zm-.43,1.2V3h1.11a.89.89,0,0,1,.34.08.52.52,0,0,1,.19.2.59.59,0,0,1,.09.31.53.53,0,0,1-.16.39.64.64,0,0,1-.42.2l.15.08a1,1,0,0,1,.14.17,1.93,1.93,0,0,1,.16.26l.25.42H131l-.18-.34a1.44,1.44,0,0,0-.3-.44.44.44,0,0,0-.29-.09h-.12v.87Zm.91-2.68a1.58,1.58,0,0,0-.79.21,1.62,1.62,0,0,0-.6.59,1.6,1.6,0,0,0,0,1.62,1.52,1.52,0,0,0,.59.59,1.56,1.56,0,0,0,1.6,0,1.52,1.52,0,0,0,.59-.59,1.6,1.6,0,0,0,0-1.62,1.48,1.48,0,0,0-.6-.59A1.61,1.61,0,0,0,130.59,2.46Zm0-.39a2,2,0,0,1,1,.26,1.84,1.84,0,0,1,.75.74,2,2,0,0,1,0,2,1.82,1.82,0,0,1-.74.74,2,2,0,0,1-1,.26,2,2,0,0,1-1-.26,1.88,1.88,0,0,1-.74-.74,2,2,0,0,1,0-2,1.82,1.82,0,0,1,.74-.74A2,2,0,0,1,130.59,2.07Z"/><path class="cls-2" d="M100.42,29.81a.08.08,0,0,1,0,0,.19.19,0,0,1,0-.07l0-.06a.08.08,0,0,1,.05-.05l0,0,0,0h.05l.06,0h.13a.11.11,0,0,1,.06,0H101l0,0,0,0a.12.12,0,0,1,0,.05l0,.06s0,.05,0,.07v7.14s0,.05,0,.08l0,0a.23.23,0,0,1,0,.05l-.06,0-.06,0-.07,0h-.13l-.06,0,0,0h0l0,0,0,0,0,0s0,0,0-.06,0,0,0,0a0,0,0,0,1,0,0v-7.1Zm-4.08,3.84v0h-.13l0,0a.1.1,0,0,1,0,0l0,0a.1.1,0,0,0,0,0l0-.06a.07.07,0,0,1,0-.05v0h0v-.08a.13.13,0,0,1,0-.06l0-.06,0,0,0-.05.06,0,.07,0h.09l3,0,.08,0,.08,0,0,0h0l0,0s0,0,0,0l0,0s0,0,0,0a0,0,0,0,0,0,0l0,0s0,0,0,.08v3.65s0,.05,0,.08a0,0,0,0,0,0,0,0,0,0,0,0,0,0l0,0,0,0,0,0,0,0h0l0,0H95.61l0,0h0l0,0,0,0a.11.11,0,0,1,0-.05l0,0a.25.25,0,0,1,0-.08V34.7a.22.22,0,0,1,0-.08l0,0a.11.11,0,0,1,0,0l0,0,0,0h.07l.08,0h.09l2.64,0,.08,0,.08,0,.06,0,0,.06,0,.05a.08.08,0,0,0,0,.06s0,.05,0,.08v.13s0,0,0,.05,0,0,0,0a0,0,0,0,0,0,0l0,0,0,0a.08.08,0,0,1,0,0l-.06,0,0,0h-.12l-2.29,0v1.39H99V33.65Zm-5.62-1.74h1.41V29.77a.13.13,0,0,1,0-.06l0-.06,0,0s0,0,0,0l0,0h0l0,0,.06,0,.06,0h.1l.06,0h.06l0,0,0,0a.08.08,0,0,1,.05.05l0,.06a.19.19,0,0,1,0,.07s0,.06,0,.08v2.06h1.41l.07,0,.08,0,.06,0a.12.12,0,0,1,0,0l0,.06a.14.14,0,0,0,0,.06s0,.05,0,.07v.13s0,0,0,.06l0,0a0,0,0,0,0,0,0l0,0,0,0,0,.05-.06,0,0,0h-.11l-1.41,0v4.25s0,0,0,0v0a0,0,0,0,0,0,0l0,.06a.12.12,0,0,1-.05,0l0,0,0,0h0s0,0,0,0l0,0h-.17l-.06,0,0,0h0l0,0,0,0s0,0,0,0l0-.06,0,0V32.62H90.72v0h-.13l-.06,0,0,0,0,0,0-.06,0-.06a.13.13,0,0,1,0-.06v-.13a.13.13,0,0,1,0-.06.16.16,0,0,0,0-.06l0,0,0-.05.06,0,.07,0h.09Zm-1.15.35a.45.45,0,0,1,0,.12.24.24,0,0,1,0,.08.09.09,0,0,1,0,.06l0,0,0,0-.05,0h-.28l0,0,0,0,0,0a.16.16,0,0,1,0-.06.64.64,0,0,1,0-.07s0,0,0-.09v-.53a.43.43,0,0,0,0-.05.64.64,0,0,0,0-.07l0-.06,0,0,0,0,0,0h0l0,0,.06,0h.13l.06,0,0,0h0l0,0,0,0,0,0,0,.06a.24.24,0,0,1,0,.08.22.22,0,0,1,0,.08Zm-.71,1.06a.2.2,0,0,0,0,0,.64.64,0,0,0,0-.07s0,0,0-.06l0,0,0,0,0,0h0l0,0,.06,0h.13l.06,0,0,0h0l0,0,0,0,0,0a.16.16,0,0,0,0,.06.31.31,0,0,1,0,.08.22.22,0,0,1,0,.08v3.47a.25.25,0,0,1,0,.08.31.31,0,0,1,0,.08l0,0a.08.08,0,0,1,0,.05l-.06,0-.06,0-.07,0h-.13l-.06,0,0,0h0l0,0,0,0,0,0,0-.06,0,0s0,0,0,0V33.32ZM79,36.83a.25.25,0,0,1,0,.08A.31.31,0,0,1,79,37l0,0a.08.08,0,0,1,0,.05.06.06,0,0,1-.06,0l0,0-.08,0h-.13l-.06,0,0,0h0l0,0,0,0,0,0,0-.06,0,0V33.27a.2.2,0,0,1,0-.07.16.16,0,0,0,0-.06.1.1,0,0,1,.05,0l0,0,0,0h0l0,0,.07,0h.09l3.56,0a.2.2,0,0,0,.08,0l.07,0,0,0h0l0,0,0,0s0,0,0,0,0,0,0,0v0s0,0,0,0a.31.31,0,0,1,0,.08.22.22,0,0,1,0,.08v3.47a.25.25,0,0,1,0,.08.31.31,0,0,1,0,.08l0,0a.13.13,0,0,1-.06.05.06.06,0,0,1-.06,0l0,0-.08,0H82.1l-.06,0,0,0h0s0,0,0,0l0,0,0,0,0-.06,0,0V33.67H79Zm-4.73-3.18v0h-.13l-.06,0,0,0s0,0,0,0a.1.1,0,0,0,0,0l0-.06a.07.07,0,0,1,0-.05v0h0v-.08a.13.13,0,0,1,0-.06.16.16,0,0,0,0-.06l0,0L74,33l.06,0,.07,0h.09l3,0,.08,0,.08,0s0,0,0,0h0l0,0,0,0,0,0,0,0a0,0,0,0,0,0,0l0,0a.31.31,0,0,0,0,.08v3.65a.19.19,0,0,0,0,.08l0,0a0,0,0,0,0,0,0s0,0,0,0l0,0,0,0,0,0h0l0,0H73.52l0,0h0l0,0,0,0a.11.11,0,0,1,0-.05l0,0a.31.31,0,0,1,0-.08V34.7a.24.24,0,0,1,0-.08l0,0a.11.11,0,0,1,0,0l0,0,0,0h.07l.07,0h.1l2.64,0,.08,0,.08,0s0,0,.06,0l0,.06a.1.1,0,0,1,0,.05.08.08,0,0,0,0,.06.24.24,0,0,0,0,.08v.13a.17.17,0,0,0,0,.05s0,0,0,0a0,0,0,0,0,0,0l0,0,0,0a.08.08,0,0,1,0,0l-.06,0,0,0h-.11l-2.29,0v1.39h2.83V33.65Z"/><path class="cls-2" d="M121.16,32.26c0,.05,0,.08,0,.12s0,0,0,.08a.09.09,0,0,1,0,.06l0,0a.1.1,0,0,0-.05,0l-.06,0h-.27l0,0,0,0,0,0a.16.16,0,0,1,0-.06.14.14,0,0,1,0-.07.22.22,0,0,1,0-.09v-.53a.11.11,0,0,1,0-.05.25.25,0,0,1,0-.07l0-.06,0,0,0,0,0,0h0l0,0,0,0h.13l.06,0,0,0h0l0,0,0,0,0,0,0,.06s0,.05,0,.08,0,.05,0,.08Zm-.71,1.06a.13.13,0,0,1,0,0,.25.25,0,0,1,0-.07.15.15,0,0,0,0-.06l0,0,0,0,0,0h0l0,0,0,0h.13l.06,0,0,0h0l0,0,0,0,0,0,0,.06s0,.06,0,.08,0,0,0,.08v3.47s0,.05,0,.08,0,.05,0,.08l0,0,0,.05-.06,0-.06,0-.07,0h-.13l-.06,0,0,0h0l0,0s0,0,0,0a.12.12,0,0,1,0,0l0-.06s0,0,0,0a0,0,0,0,1,0,0V33.32ZM119,29.81a.08.08,0,0,1,0,0,.19.19,0,0,1,0-.07l0-.06,0-.05,0,0,0,0h.06l0,0h.13a.08.08,0,0,1,.06,0h.07l0,0,0,0a.12.12,0,0,1,0,.05l0,.06s0,.05,0,.07,0,.06,0,.08v7s0,.05,0,.08,0,.05,0,.08l0,0,0,.05-.06,0-.06,0-.07,0h-.13l-.06,0,0,0h0l0,0s0,0,0,0a.12.12,0,0,1,0,0l0-.06s0,0,0,0a0,0,0,0,1,0,0v-7.1Zm-9.88,7s0,.05,0,.08a.31.31,0,0,1,0,.08l0,0a.12.12,0,0,1,0,.05l-.06,0-.06,0-.07,0h-.13l-.06,0,0,0h0l0,0,0,0,0,0,0-.06s0,0,0,0a0,0,0,0,1,0,0V33.27a.25.25,0,0,1,0-.07.15.15,0,0,1,0-.06l0,0,0,0,0,0h0a.05.05,0,0,0,0,0l.06,0h.09l3.56,0,.08,0,.08,0,0,0h0l0,0,0,0,0,0,0,0v0l0,0a.31.31,0,0,1,0,.08s0,0,0,.08v3.47s0,.05,0,.08a.31.31,0,0,1,0,.08l0,0a.12.12,0,0,1,0,.05l-.06,0-.06,0-.07,0h-.13l-.06,0,0,0h0l0,0,0,0a.12.12,0,0,1,0,0l0-.06s0,0,0,0a0,0,0,0,1,0,0V33.67h-2.85Zm-4.74-3.18v0h-.12l-.06,0-.05,0,0,0,0,0s0,0,0-.06a.08.08,0,0,1,0-.05v0h0v-.08a.14.14,0,0,1,0-.06s0,0,0-.06l0,0s0,0,.05-.05l.06,0,.06,0h.09l3,0,.07,0,.08,0,0,0h0l0,0,0,0,0,0a0,0,0,0,0,0,0v0l0,0a.19.19,0,0,1,0,.08.17.17,0,0,1,0,.07v3.5a.25.25,0,0,1,0,.08.31.31,0,0,1,0,.08l0,0v0s0,0,0,0l0,0,0,0,0,0h0l0,0H103.6l0,0h0l0,0,0,0,0-.05,0,0a.25.25,0,0,1,0-.08V34.7a.22.22,0,0,1,0-.08l0,0,0,0,0,0,0,0h.06l.08,0h.09l2.65,0,.08,0,.08,0,0,0a.13.13,0,0,1,.05.06.05.05,0,0,1,0,.05s0,0,0,.06a.24.24,0,0,1,0,.08.11.11,0,0,1,0,0,.22.22,0,0,1,0,.08.08.08,0,0,1,0,.05l0,0v0l0,0,0,0a.1.1,0,0,1,0,0l-.06,0,0,0h-.11l-2.3,0v1.39H107V33.65Zm-1.71-1.39v.12s0,0,0,.08a.09.09,0,0,1,0,.06l0,0-.06,0,0,0h-.27l0,0-.06,0,0,0a.06.06,0,0,1,0-.06.14.14,0,0,1,0-.07.22.22,0,0,1,0-.09v-.53a.11.11,0,0,1,0-.05.25.25,0,0,1,0-.07l0-.06a.1.1,0,0,1,.05,0s0,0,0,0l0,0h0l0,0,.06,0h.13l.06,0,0,0h0l0,0,0,0,0,0,0,.06s0,.05,0,.08v.53Zm-.7,1.06a.13.13,0,0,1,0,0,.25.25,0,0,1,0-.07.15.15,0,0,0,0-.06.1.1,0,0,1,.05,0s0,0,0,0l0,0h0l0,0,.06,0h.13l.06,0,0,0h0l0,0,0,0,0,0,0,.06s0,.06,0,.08v3.63s0,.05,0,.08l0,0a.23.23,0,0,1,0,.05l-.06,0-.06,0-.07,0h-.13l-.06,0,0,0h0l0,0,0,0,0,0a.09.09,0,0,1,0-.06s0,0,0,0a0,0,0,0,1,0,0V33.32Z"/><path class="cls-2" d="M127.45,35.55l0,0h0l0,0h0l0,0h-.21l-.07,0-.06-.05-.06,0,0-.06,0-.06a.14.14,0,0,1,0-.07.17.17,0,0,1,0-.07v-.05a.07.07,0,0,1,0,0s0,0,0,0v0l0,0h0l0,0v0h0l0,0,1.83-1.37h-2.1v2.83h3.18l.08,0,.08,0,.06,0,0,.05a.21.21,0,0,1,0,.06.14.14,0,0,0,0,.06.43.43,0,0,0,0,0,.08.08,0,0,1,0,0,.13.13,0,0,1,0,.06s0,0,0,.06,0,0,0,0,0,0,0,0l0,0s0,0,0,0a.11.11,0,0,1-.05,0l0,0h-3.85l0,0h0l0,0,0,0s0,0,0-.05l0,0a.25.25,0,0,1,0-.08V33.25a.17.17,0,0,1,0-.07l0-.06,0,0,0,0,0,0h0l0,0,.08,0h.09l3.53,0,.07,0,.06,0,.06,0,.06.05,0,.06,0,.06s0,.05,0,.07a.13.13,0,0,1,0,.06v0h0v0a.2.2,0,0,1,0,.08l0,0,0,0,0,0,0,0ZM122,33.32a.13.13,0,0,1,0,0,.25.25,0,0,1,0-.07.15.15,0,0,0,0-.06l0,0,0,0,0,0h0l0,0,0,0h.14l.05,0,0,0h0l0,0,0,0,0,0,0,.06s0,.06,0,.08,0,0,0,.08v2.4l2-2.65h0l0,0,0,0,0,0h.07l0,0h.09l.06,0,.06,0,.06,0,.06,0,0,.06s0,0,0,.06a.25.25,0,0,1,0,.07.18.18,0,0,1,0,.06v0h0v0h0v0h0v0h0L122.58,37h0s0,0,0,0v0h0a0,0,0,0,0,0,0h0v0l0,0h0v0h-.17l0,0,0,0h0l0,0,0,0,0-.06,0-.06a.14.14,0,0,1,0-.06.17.17,0,0,1,0-.07Z"/></g></g></svg>