<svg xmlns="http://www.w3.org/2000/svg" width="128.268" height="35.03" viewBox="0 0 128.268 35.03">
  <path id="Path_1" data-name="Path 1" d="M114.92,35.03h-.32V27.87l.06-.13a.18.18,0,0,1,0-.069V27.56h.19a.087.087,0,0,1,.06,0h.069a.119.119,0,0,1,0,.05v7.42Zm-23.65,0a.115.115,0,0,1,0-.049.239.239,0,0,1,0-.08V32.63a.239.239,0,0,1,0-.08h3.1v.11a.087.087,0,0,0,0,.06v.26H91.9v1.39h2.76V31.58H91.87v-.06a.067.067,0,0,1,0-.049v-.08a.114.114,0,0,1,0-.06v-.11h3.38v3.81Zm24.97-.01h-.319V31.25h.19a.224.224,0,0,1,0-.069.17.17,0,0,0,0-.06h.19v3.9Zm-31.53,0H84.39V31.25h.13c0-.023,0-.047,0-.069v-.06h.25a.17.17,0,0,0,0,.06.292.292,0,0,1,0,.079.239.239,0,0,1,0,.08v3.47a.239.239,0,0,1,0,.08.3.3,0,0,1,0,.08.078.078,0,0,1,0,.049Zm14.55-.01v-.049a.239.239,0,0,1,0-.08V32.63a.2.2,0,0,1,0-.08h3.04a.133.133,0,0,1,.049.059.05.05,0,0,1,0,.05v.06a.239.239,0,0,1,0,.08.2.2,0,0,1,0,.079.08.08,0,0,1,0,.05H99.88v1.39h2.78V31.58l-2.621-.02H99.81V31.5a.08.08,0,0,1,0-.05V31.37a.136.136,0,0,1,0-.06v-.06l.049-.05h3.361a.2.2,0,0,1,0,.08.18.18,0,0,1,0,.069v3.5a.239.239,0,0,1,0,.08.3.3,0,0,1,0,.08Zm-2.66,0H96.28v-7.16l-.2-.111a.224.224,0,0,1,0-.069v-.06a.082.082,0,0,1,.05-.05h.24a.111.111,0,0,1,.059,0h.23a.119.119,0,0,1,0,.05v7.35a.227.227,0,0,1,0,.049ZM97.87,35h-.32a.087.087,0,0,1,0-.06V31.25l.08-.02a.229.229,0,0,1,0-.07.165.165,0,0,0,0-.059.092.092,0,0,1,.049,0h.25V34.95a.236.236,0,0,1,0,.05ZM74.6,34.98h-.27V31.2a.184.184,0,0,1,0-.07.17.17,0,0,0,0-.06.115.115,0,0,1,.049,0H78.1a.2.2,0,0,0,.08,0h.069a.3.3,0,0,1,0,.08.2.2,0,0,1,0,.08V34.7a.239.239,0,0,1,0,.08.292.292,0,0,1,0,.079.129.129,0,0,1-.059.05.06.06,0,0,1-.06,0H77.7V31.6H74.66v3.16a.239.239,0,0,1,0,.08.3.3,0,0,1,0,.09.08.08,0,0,1,0,.05.058.058,0,0,1-.059,0Zm30.119-.031h-.32V31.2a.229.229,0,0,1,0-.07.136.136,0,0,1,0-.06h3.87a.3.3,0,0,1,0,.08v3.631a.292.292,0,0,1,0,.079.119.119,0,0,1,0,.05h-.38V31.6h-2.85l-.26,3.14v.08a.3.3,0,0,1,0,.08.115.115,0,0,1,0,.049Zm13.351-.02v-.12a.136.136,0,0,1,0-.06.154.154,0,0,1,0-.07l-.127-1.063,1.907-2.526h.4v.12a.229.229,0,0,1,0,.07.165.165,0,0,1,0,.059l-2.01,3.59Zm7.77-.059v0Zm-.049,0h-3.85v-.05a.239.239,0,0,1,0-.08v-3.56a.154.154,0,0,1,0-.07v-.06h3.89l.06.05v.19a.132.132,0,0,1,0,.059.2.2,0,0,1,0,.08l-2.78,2.05h-.28l-.06-.049h-.06V33.31a.154.154,0,0,1,0-.07.179.179,0,0,1,0-.069v-.05l1.831-1.37h-2.1v2.83h3.4v.05a.225.225,0,0,1,0,.06.132.132,0,0,0,0,.059.137.137,0,0,1,0,.06v.06l-.025,0ZM69.18,34.74a.092.092,0,0,1,0-.049.3.3,0,0,1,0-.08V32.63a.239.239,0,0,1,0-.08h3.1v.059a.1.1,0,0,1,0,.05.078.078,0,0,0,0,.06.239.239,0,0,0,0,.08v.13a.158.158,0,0,0,0,.05H69.82v1.39h2.83V31.58H69.74v-.06a.067.067,0,0,1,0-.049v-.08a.136.136,0,0,1,0-.06.17.17,0,0,0,0-.06l-.08-.339h3.38a.4.4,0,0,0,0,.08V34.66a.2.2,0,0,0,0,.08Zm18.99-.1h-.23v-4.09H86.19V30.43a.111.111,0,0,1,0-.059v-.13a.114.114,0,0,1,0-.06.165.165,0,0,0,0-.059v-.05h.22l-.03-.229H87.79V27.7a.136.136,0,0,1,0-.06v-.059h.34a.079.079,0,0,1,.05.049v.06a.229.229,0,0,1,0,.07V29.9H89.8v.06a.136.136,0,0,0,0,.06v.31H88.22v4.31l-.025,0Zm29.679-1.8.093.78-.093.124Zm-23.48.144v0Zm23.29-1.731a.3.3,0,0,1,0-.069.137.137,0,0,0,0-.06h.19v1.717Zm-.89-.8h-.329a.132.132,0,0,1,0-.059.133.133,0,0,1,0-.07.217.217,0,0,1,0-.09V29.7a.092.092,0,0,1,0-.049.229.229,0,0,1,0-.07v-.06h.19v.221l.19.45v.2a.084.084,0,0,1,0,.059A.119.119,0,0,0,116.77,30.45Zm-31.59,0H84.9a.165.165,0,0,1,0-.059q0-.035,0-.07V29.7a.454.454,0,0,0,0-.049.457.457,0,0,0,0-.07v-.06h.25v.06a.239.239,0,0,1,0,.08.239.239,0,0,1,0,.08l.08.45a.444.444,0,0,1,0,.12.239.239,0,0,1,0,.08.084.084,0,0,1,0,.059Zm13.09-.02h-.33a.058.058,0,0,1,0-.059.154.154,0,0,1,0-.07.217.217,0,0,1,0-.09v-.53a.119.119,0,0,1,0-.05.224.224,0,0,1,0-.069V29.5a.1.1,0,0,1,.05,0h.249v.67h.09v.2a.084.084,0,0,1,0,.059ZM71.66,24.67A7,7,0,0,1,69,23.47,5.921,5.921,0,0,1,67.15,21a10.251,10.251,0,0,1-.58-3.69V11.57q0-4.531,2.149-6.31t7.79-1.79h7.15a29.747,29.747,0,0,1,5.1.31,6.065,6.065,0,0,1,2.59,1,4.483,4.483,0,0,1,1.48,2.15,9.663,9.663,0,0,1,.471,3.25v1.18l-6.491-.05V11.1a2,2,0,0,0-.82-1.8,4.524,4.524,0,0,0-2.569-.57H78.27c-2.2,0-3.621.26-4.241.8s-1,1.64-1,3.34v2.921a3.863,3.863,0,0,0,1,3.129q1.05.841,4.14.841H81.9a8.483,8.483,0,0,0,4-.61,2.5,2.5,0,0,0,1-2.28v-.23H93.42a1.189,1.189,0,0,0,0,.16v1.37a9.127,9.127,0,0,1-.51,3.34,4.578,4.578,0,0,1-1.589,2.1A6.745,6.745,0,0,1,88.66,24.7a29.05,29.05,0,0,1-5,.319H76.48q-.354.011-.708.011A23.649,23.649,0,0,1,71.66,24.67Zm-13.82.1L49.45,9.66l-3.994,7.629,5.1-.359,3.62,3.9-10.055-1L41.54,24.77H34.53l2.945-5.57L29.24,18.43l8.975-.63L45.66,3.72h7.78L64.67,24.77Zm-39.51,0V8.88H9.53V3.72H33.55V8.88h-8.8V24.77ZM0,24.76V3.72H6.43V24.76Zm118.97-.22-2-3.5H104.46l-1.991,3.5H95.66L106.83,3.47h8l11,21.07Zm-12.14-8.61h7.83l-4-7.46ZM126.26,4a2,2,0,0,1-1-.26A1.879,1.879,0,0,1,124.52,3a2,2,0,0,1,0-2,1.827,1.827,0,0,1,.741-.74,2.033,2.033,0,0,1,1.99,0A1.843,1.843,0,0,1,128,1a2,2,0,0,1,0,2,1.821,1.821,0,0,1-.74.741,2.007,2.007,0,0,1-.989.26Zm-.8-3.4a1.626,1.626,0,0,0-.6.59,1.6,1.6,0,0,0,0,1.62,1.514,1.514,0,0,0,.59.59,1.56,1.56,0,0,0,1.6,0,1.517,1.517,0,0,0,.59-.59,1.6,1.6,0,0,0,0-1.62,1.479,1.479,0,0,0-.6-.59A1.609,1.609,0,0,0,126.25.39,1.581,1.581,0,0,0,125.46.6Zm-.12.329h1.11a.909.909,0,0,1,.34.08.522.522,0,0,1,.19.2.6.6,0,0,1,.09.31.528.528,0,0,1-.16.39.641.641,0,0,1-.42.2l.15.079a1.015,1.015,0,0,1,.14.17,1.973,1.973,0,0,1,.159.26l.25.42h-.53l-.18-.34a1.457,1.457,0,0,0-.3-.44.441.441,0,0,0-.29-.09h-.121v.87l-.429.03Zm.429.941h.18a2.068,2.068,0,0,0,.46,0,.241.241,0,0,0,.14-.1.251.251,0,0,0,.06-.17.284.284,0,0,0,0-.15.315.315,0,0,0-.15-.1,2.068,2.068,0,0,0-.46,0h-.18Z" transform="translate(0 0)" fill="#fff"/>
</svg>
